<svg width="51" height="51" viewBox="0 0 51 51" fill="none" xmlns="http://www.w3.org/2000/svg">
<g clip-path="url(#clip0_8_199)">
<path d="M50.5 25.5C50.5 37.7758 41.6514 47.9858 29.9844 50.0987V33.3711H35.4261H35.8552L35.9203 32.9469L37.0509 25.5758L37.1392 25H36.5566H29.9844V20.7188C29.9844 19.7821 30.2145 18.9191 30.7526 18.2966C31.2791 17.6876 32.1649 17.2344 33.6401 17.2344H36.8555H37.3555V16.7344V10.459V10.0371L36.9396 9.96611L36.8555 10.459C36.9396 9.96611 36.9395 9.9661 36.9395 9.96609L36.9393 9.96606L36.9387 9.96596L36.9368 9.96564L36.9299 9.96447L36.9036 9.96009C36.8923 9.95822 36.8784 9.95594 36.8619 9.95327C36.8451 9.95052 36.8255 9.94737 36.8035 9.94384C36.7163 9.92993 36.5894 9.91016 36.4286 9.88649C36.1071 9.83918 35.6498 9.77621 35.1047 9.71326C34.0164 9.58762 32.5685 9.46094 31.1474 9.46094C28.134 9.46094 25.5874 10.376 23.7935 12.1715C21.9992 13.9675 21.0156 16.5868 21.0156 19.882V25H15.041H14.541V25.5V32.8711V33.3711H15.041H21.0156V50.0987C9.34863 47.9858 0.5 37.7758 0.5 25.5C0.5 11.6929 11.6929 0.5 25.5 0.5C39.3071 0.5 50.5 11.6929 50.5 25.5Z" fill="#E8E7E7" stroke="#6674EE"/>
<path d="M35.4261 32.8711L36.5566 25.5H29.4844V20.7188C29.4844 18.7022 30.4725 16.7344 33.6401 16.7344H36.8555V10.459C36.8555 10.459 33.9374 9.96094 31.1474 9.96094C25.3227 9.96094 21.5156 13.4911 21.5156 19.882V25.5H15.041V32.8711H21.5156V50.6902C24.1558 51.1033 26.8442 51.1033 29.4844 50.6902V32.8711H35.4261Z" fill="black"/>
</g>
<defs>
<clipPath id="clip0_8_199">
<rect width="51" height="51" fill="white"/>
</clipPath>
</defs>
</svg>
