<svg width="51" height="51" viewBox="0 0 51 51" fill="none" xmlns="http://www.w3.org/2000/svg">
<circle cx="25.5" cy="25.5" r="25" fill="white" stroke="#6674EE"/>
<g clip-path="url(#clip0_8_197)">
<path d="M49.4375 25.5C49.4375 38.7203 38.7203 49.4375 25.5 49.4375C12.2797 49.4375 1.5625 38.7203 1.5625 25.5C1.5625 12.2797 12.2797 1.5625 25.5 1.5625C38.7203 1.5625 49.4375 12.2797 49.4375 25.5Z" fill="url(#paint0_linear_8_197)" stroke="#6674EE"/>
<path fill-rule="evenodd" clip-rule="evenodd" d="M12.1243 25.2421C19.2483 22.1383 23.9988 20.092 26.3757 19.1034C33.1623 16.2806 34.5725 15.7903 35.4916 15.7741C35.6937 15.7705 36.1458 15.8206 36.4385 16.0582C36.6858 16.2588 36.7538 16.5298 36.7863 16.72C36.8189 16.9102 36.8594 17.3435 36.8272 17.682C36.4594 21.5462 34.8681 30.9234 34.0586 35.2513C33.716 37.0826 33.0415 37.6967 32.3885 37.7567C30.9693 37.8873 29.8917 36.8189 28.5172 35.9179C26.3664 34.508 25.1513 33.6303 23.0636 32.2546C20.6508 30.6646 22.2149 29.7907 23.5899 28.3626C23.9498 27.9888 30.2025 22.3015 30.3235 21.7856C30.3387 21.721 30.3527 21.4805 30.2098 21.3535C30.0669 21.2265 29.8561 21.2699 29.7039 21.3045C29.4881 21.3534 26.0522 23.6245 19.396 28.1176C18.4207 28.7873 17.5373 29.1136 16.7458 29.0965C15.8733 29.0776 14.1949 28.6031 12.9471 28.1976C11.4167 27.7001 10.2004 27.4371 10.3063 26.5922C10.3615 26.1522 10.9675 25.7021 12.1243 25.2421Z" fill="black"/>
</g>
<defs>
<linearGradient id="paint0_linear_8_197" x1="25.5" y1="1.0625" x2="25.5" y2="49.575" gradientUnits="userSpaceOnUse">
<stop stop-color="#E8E7E7"/>
<stop offset="1" stop-color="#E8E7E7"/>
</linearGradient>
<clipPath id="clip0_8_197">
<rect width="48.875" height="48.875" fill="white" transform="translate(1.0625 1.0625)"/>
</clipPath>
</defs>
</svg>
