<svg width="51" height="51" viewBox="0 0 51 51" fill="none" xmlns="http://www.w3.org/2000/svg">
<rect x="0.5" y="0.5" width="50" height="50" rx="14.5" fill="#E8E7E7" stroke="#6674EE"/>
<path d="M35.206 19.2441C38.0998 21.3201 41.6448 22.5415 45.4736 22.5415V15.1475C44.749 15.1477 44.0262 15.0718 43.3173 14.9211V20.7412C39.4888 20.7412 35.9443 19.5198 33.0497 17.444V32.533C33.0497 40.0813 26.9524 46.2 19.4314 46.2C16.6251 46.2 14.0168 45.3485 11.8501 43.8883C14.323 46.4259 17.7718 48.0001 21.5872 48.0001C29.1086 48.0001 35.2063 41.8814 35.2063 34.3328V19.2441H35.206ZM37.866 11.7845C36.3871 10.163 35.4161 8.06764 35.206 5.75107V4.80005H33.1626C33.677 7.7444 35.4313 10.2599 37.866 11.7845ZM16.6071 38.096C15.7808 37.0088 15.3343 35.6787 15.3363 34.3112C15.3363 30.8589 18.1252 28.0597 21.5659 28.0597C22.2072 28.0596 22.8446 28.1581 23.4557 28.3527V20.7934C22.7415 20.6952 22.0208 20.6535 21.3003 20.6688V26.5526C20.6888 26.358 20.0511 26.2591 19.4097 26.2598C15.9689 26.2598 13.1802 29.0586 13.1802 32.5114C13.1802 34.9527 14.5742 37.0664 16.6071 38.096Z" fill="#FF004F"/>
<path d="M33.0496 17.4438C35.9442 19.5196 39.4887 20.7411 43.3172 20.7411V14.921C41.1802 14.4641 39.2883 13.3434 37.8659 11.7845C35.4311 10.2597 33.6769 7.74425 33.1625 4.80005H27.7952V34.3325C27.783 37.7754 24.9989 40.5631 21.5655 40.5631C19.5423 40.5631 17.7449 39.5953 16.6065 38.096C14.5738 37.0664 13.1798 34.9526 13.1798 32.5115C13.1798 29.0591 15.9685 26.2599 19.4093 26.2599C20.0685 26.2599 20.7039 26.3629 21.2999 26.5527V20.669C13.911 20.8222 7.96857 26.8811 7.96857 34.3327C7.96857 38.0525 9.44837 41.4246 11.8501 43.8885C14.0168 45.3485 16.6252 46.2001 19.4314 46.2001C26.9526 46.2001 33.0498 40.0811 33.0498 32.533V17.4438H33.0496Z" fill="black"/>
<path d="M43.3173 14.9209V13.3472C41.3902 13.3501 39.5009 12.8085 37.8659 11.7843C39.3133 13.3745 41.2191 14.471 43.3173 14.9209ZM33.1626 4.79997C33.1135 4.51858 33.0758 4.23535 33.0497 3.95103V3H25.6388V32.5328C25.6269 35.9752 22.843 38.7629 19.4093 38.7629C18.4012 38.7629 17.4495 38.5228 16.6066 38.0961C17.7449 39.5952 19.5424 40.5629 21.5656 40.5629C24.9986 40.5629 27.7832 37.7755 27.7952 34.3326V4.79997H33.1626ZM21.3003 20.6689V18.9935C20.681 18.9086 20.0567 18.866 19.4316 18.8663C11.9098 18.8661 5.8125 24.9851 5.8125 32.5328C5.8125 37.2647 8.20886 41.435 11.8503 43.8881C9.44857 41.4244 7.96876 38.0521 7.96876 34.3324C7.96876 26.881 13.9111 20.8221 21.3003 20.6689Z" fill="#00F2EA"/>
</svg>
