<svg width="51" height="51" viewBox="0 0 51 51" fill="none" xmlns="http://www.w3.org/2000/svg">
<g clip-path="url(#clip0_8_198)">
<rect width="51" height="51" fill="#E8E7E7"/>
<path d="M0.5 24.48C0.5 18.6959 0.501062 14.4081 0.943668 11.116C1.38434 7.83833 2.25444 5.62269 3.93857 3.93857C5.62269 2.25444 7.83833 1.38434 11.116 0.943668C14.4081 0.501062 18.6959 0.5 24.48 0.5H26.52C32.3041 0.5 36.5919 0.501062 39.884 0.943668C43.1617 1.38434 45.3773 2.25444 47.0615 3.93857C48.7456 5.62269 49.6157 7.83833 50.0563 11.116C50.4989 14.4081 50.5 18.6959 50.5 24.48V26.52C50.5 32.3041 50.4989 36.5919 50.0563 39.884C49.6157 43.1617 48.7456 45.3773 47.0615 47.0615C45.3773 48.7456 43.1617 49.6157 39.884 50.0563C36.5919 50.4989 32.3041 50.5 26.52 50.5H24.48C18.6959 50.5 14.4081 50.4989 11.116 50.0563C7.83833 49.6157 5.62269 48.7456 3.93857 47.0615C2.25444 45.3773 1.38434 43.1617 0.943668 39.884C0.501062 36.5919 0.5 32.3041 0.5 26.52V24.48Z" fill="#E8E7E7" stroke="#6674EE"/>
<path d="M27.1362 36.7414C15.5125 36.7414 8.8826 28.7727 8.60635 15.5127H14.4289C14.6201 25.2452 18.9125 29.3677 22.3125 30.2177V15.5127H27.7952V23.9064C31.1527 23.5452 34.6798 19.7202 35.8698 15.5127H41.3524C40.4386 20.6977 36.6136 24.5227 33.8936 26.0952C36.6136 27.3702 40.9701 30.7064 42.6276 36.7414H36.5924C35.2961 32.7039 32.0665 29.5802 27.7952 29.1552V36.7414H27.1362Z" fill="black"/>
</g>
<defs>
<clipPath id="clip0_8_198">
<rect width="51" height="51" fill="white"/>
</clipPath>
</defs>
</svg>
