<svg width="251" height="245" fill="none" xmlns="http://www.w3.org/2000/svg"><path fill-rule="evenodd" clip-rule="evenodd" d="M250.004 122.485c0 3.228-.128 6.427-.378 9.592L117.752.203a129.554 129.554 0 0 1 10.161-.17l122.09 122.09.001.362ZM107.057 1.253c3.086-.435 6.208-.76 9.362-.969l133.097 133.097a120.782 120.782 0 0 1-1.178 9.152L107.057 1.253Zm136.544 160.035a119.41 119.41 0 0 0 2.399-7.933L95.966 3.321c-2.75.642-5.466 1.372-8.143 2.188L243.6 161.288ZM86.743 5.843c-2.913.917-5.78 1.936-8.596 3.052l161.801 161.801a119.982 119.982 0 0 0 3.29-8.358L86.743 5.843ZM246.102 92a119.961 119.961 0 0 0-5.232-15.562L174.344 9.912a125.757 125.757 0 0 0-15.777-5.446L246.102 92ZM156.646 3.96a126.684 126.684 0 0 0-14.458-2.81l106.964 106.964a119.758 119.758 0 0 0-2.572-14.22L156.646 3.959Zm92.686 105.747c.383 3.619.605 7.285.659 10.99L129.368.073c3.777.127 7.512.419 11.197.867l108.767 108.766Zm-3.04 42.527a120.074 120.074 0 0 0 1.837-8.494L105.823 1.433c-2.937.443-5.84.986-8.705 1.626l149.174 149.174Zm-6.478-78.266c-12.284-27.871-34.829-50.385-62.97-62.97l62.97 62.97ZM54.789 21.133a125.431 125.431 0 0 1 6.589-4.102l169.927 169.927a121.77 121.77 0 0 1-4.32 6.372L54.789 21.133Zm14.24-8.197a125.467 125.467 0 0 0-6.753 3.578L231.85 186.09a121.913 121.913 0 0 0 3.788-6.543L69.029 12.936ZM77.138 9.3a125.64 125.64 0 0 0-7.158 3.173l166.151 166.151a121.021 121.021 0 0 0 3.383-6.947L77.138 9.3Zm149.25 184.847L53.943 21.702a125.363 125.363 0 0 0-5.999 4.332l173.902 173.902a123.094 123.094 0 0 0 4.542-5.789Zm-5.188 6.557L47.148 26.652a125.083 125.083 0 0 0-5.648 4.683l174.807 174.807a124.693 124.693 0 0 0 4.893-5.438Zm-5.587 6.158L40.751 32a124.693 124.693 0 0 0-5.955 5.692l174.889 174.89c2.04-1.842 4.017-3.75 5.928-5.72Zm-19.907 16.646a125.184 125.184 0 0 1-6.562 4.129L19.017 57.511a122.622 122.622 0 0 1 4.347-6.346l172.342 172.343Zm.843-.572L23.965 50.352a123.375 123.375 0 0 1 4.567-5.764l173.99 173.991a126.456 126.456 0 0 1-5.973 4.357Zm6.767-4.978L29.181 43.823A124.097 124.097 0 0 1 34.1 38.41l174.84 174.84a125.482 125.482 0 0 1-5.623 4.708Zm-15.066 10.199L18.469 58.377a121.75 121.75 0 0 0-3.816 6.514l166.871 166.872a125.547 125.547 0 0 0 6.726-3.606Zm-7.673 4.072L14.157 65.81a120.951 120.951 0 0 0-3.412 6.918l162.703 162.704a125.47 125.47 0 0 0 7.129-3.203Zm-8.134 3.612L10.306 73.704a120.194 120.194 0 0 0-3.326 8.322l156.904 156.903a125.96 125.96 0 0 0 8.559-3.088Zm-28.779 7.773c-3.179.467-6.397.816-9.649 1.043L.526 111.169c.298-3.181.72-6.327 1.26-9.433l141.878 141.878Zm1.228-.186L2.002 100.537a119.63 119.63 0 0 1 1.878-8.452L153.555 241.76a126.53 126.53 0 0 1-8.663 1.668Zm9.809-1.936L4.177 90.968a119.688 119.688 0 0 1 2.435-7.896L162.81 239.268a125.78 125.78 0 0 1-8.108 2.224Zm-22.015 3.251a129.574 129.574 0 0 1-10.126.204L0 122.387c.003-3.339.142-6.647.412-9.919l132.274 132.275ZM.007 123.809 121.11 244.912c-3.761-.113-7.48-.388-11.15-.82L.619 134.752a121.362 121.362 0 0 1-.612-10.943Zm.784 12.528 107.555 107.555a126.58 126.58 0 0 1-14.373-2.725L3.278 150.472a119.835 119.835 0 0 1-2.487-14.135Zm91.274 104.337a125.736 125.736 0 0 1-15.617-5.287L8.815 167.754a119.82 119.82 0 0 1-5.073-15.403l88.323 88.323Zm-18.081-6.336-64.15-64.15c12.32 28.52 35.35 51.518 64.15 64.15Z" fill="url(#a)" fill-opacity=".5"/><defs><linearGradient id="a" x1="44.789" y1="18.373" x2="204.369" y2="240.583" gradientUnits="userSpaceOnUse"><stop offset=".225" stop-color="#D05454"/><stop offset=".531" stop-color="#6674EE"/><stop offset=".797" stop-color="#959494"/></linearGradient></defs></svg>